<?xml version='1.0' encoding='utf-8'?>
<svg xmlns="http://www.w3.org/2000/svg" viewBox="0 0 1600 860" width="1600" height="860" xmlns="http://www.w3.org/2000/svg"><defs><marker id="arrow-solid" markerWidth="10" markerHeight="7" refX="9" refY="3.5" orient="auto"><path d="M0,0 L10,3.5 L0,7 Z" fill="#111827" /></marker><marker id="arrow-dashed" markerWidth="10" markerHeight="7" refX="9" refY="3.5" orient="auto"><path d="M0,0 L10,3.5 L0,7 Z" fill="#64748b" /></marker></defs><rect x="0" y="0" width="1600" height="860" fill="#f8fafc" /><rect x="-25" y="24" width="210" height="42" rx="8" fill="#dbeafe" stroke="#60a5fa" stroke-width="2" /><text x="80" y="50" text-anchor="middle" font-size="17" font-weight="700" font-family="Segoe UI, Arial, sans-serif" fill="#1e3a8a">Opérateur</text><line x1="80" y1="70" x2="80" y2="820" stroke="#94a3b8" stroke-width="1.4" stroke-dasharray="8 8" /><rect x="225" y="24" width="210" height="42" rx="8" fill="#dbeafe" stroke="#60a5fa" stroke-width="2" /><text x="330" y="50" text-anchor="middle" font-size="17" font-weight="700" font-family="Segoe UI, Arial, sans-serif" fill="#1e3a8a">EnhancedVisualization</text><line x1="330" y1="70" x2="330" y2="820" stroke="#94a3b8" stroke-width="1.4" stroke-dasharray="8 8" /><rect x="505" y="24" width="210" height="42" rx="8" fill="#dbeafe" stroke="#60a5fa" stroke-width="2" /><text x="610" y="50" text-anchor="middle" font-size="17" font-weight="700" font-family="Segoe UI, Arial, sans-serif" fill="#1e3a8a">Visualization3DPage</text><line x1="610" y1="70" x2="610" y2="820" stroke="#94a3b8" stroke-width="1.4" stroke-dasharray="8 8" /><rect x="785" y="24" width="210" height="42" rx="8" fill="#dbeafe" stroke="#60a5fa" stroke-width="2" /><text x="890" y="50" text-anchor="middle" font-size="17" font-weight="700" font-family="Segoe UI, Arial, sans-serif" fill="#1e3a8a">useServoControl</text><line x1="890" y1="70" x2="890" y2="820" stroke="#94a3b8" stroke-width="1.4" stroke-dasharray="8 8" /><rect x="1065" y="24" width="210" height="42" rx="8" fill="#dbeafe" stroke="#60a5fa" stroke-width="2" /><text x="1170" y="50" text-anchor="middle" font-size="17" font-weight="700" font-family="Segoe UI, Arial, sans-serif" fill="#1e3a8a">ROSService / ROS2</text><line x1="1170" y1="70" x2="1170" y2="820" stroke="#94a3b8" stroke-width="1.4" stroke-dasharray="8 8" /><rect x="1345" y="24" width="210" height="42" rx="8" fill="#dbeafe" stroke="#60a5fa" stroke-width="2" /><text x="1450" y="50" text-anchor="middle" font-size="17" font-weight="700" font-family="Segoe UI, Arial, sans-serif" fill="#1e3a8a">URDFBuilder</text><line x1="1450" y1="70" x2="1450" y2="820" stroke="#94a3b8" stroke-width="1.4" stroke-dasharray="8 8" /><rect x="322" y="120" width="16" height="510" rx="3" fill="#bfdbfe" stroke="#60a5fa" stroke-width="1" /><rect x="602" y="250" width="16" height="260" rx="3" fill="#bfdbfe" stroke="#60a5fa" stroke-width="1" /><rect x="882" y="360" width="16" height="100" rx="3" fill="#bfdbfe" stroke="#60a5fa" stroke-width="1" /><rect x="1162" y="420" width="16" height="150" rx="3" fill="#bfdbfe" stroke="#60a5fa" stroke-width="1" /><rect x="1442" y="570" width="16" height="100" rx="3" fill="#bfdbfe" stroke="#60a5fa" stroke-width="1" /><line x1="80" y1="140" x2="330" y2="140" stroke="#111827" stroke-width="2.1" marker-end="url(#arrow-solid)" /><rect x="95.0" y="118" width="220" height="34" rx="6" fill="white" opacity="0.93" /><text x="205.0" y="138" text-anchor="middle" font-size="13" font-family="Segoe UI, Arial, sans-serif" fill="#334155">Interaction sur une articulation 3D</text><path d="M 338 200 h 70 v 28 h -70" fill="none" stroke="#111827" stroke-width="2.1" marker-end="url(#arrow-solid)" /><text x="416" y="210" text-anchor="start" font-size="13" font-family="Segoe UI, Arial, sans-serif" fill="#334155">Détection de l'objet sélectionné</text><line x1="330" y1="280" x2="610" y2="280" stroke="#111827" stroke-width="2.1" marker-end="url(#arrow-solid)" /><rect x="360.0" y="258" width="220" height="34" rx="6" fill="white" opacity="0.93" /><text x="470.0" y="278" text-anchor="middle" font-size="13" font-family="Segoe UI, Arial, sans-serif" fill="#334155">Transmission du mouvement détecté</text><path d="M 618 330 h 70 v 28 h -70" fill="none" stroke="#111827" stroke-width="2.1" marker-end="url(#arrow-solid)" /><text x="696" y="340" text-anchor="start" font-size="13" font-family="Segoe UI, Arial, sans-serif" fill="#334155">handleJointDrag()</text><path d="M 618 380 h 70 v 28 h -70" fill="none" stroke="#111827" stroke-width="2.1" marker-end="url(#arrow-solid)" /><text x="696" y="390" text-anchor="start" font-size="13" font-family="Segoe UI, Arial, sans-serif" fill="#334155">handleServoChange()</text><line x1="610" y1="430" x2="890" y2="430" stroke="#111827" stroke-width="2.1" marker-end="url(#arrow-solid)" /><rect x="640.0" y="408" width="220" height="34" rx="6" fill="white" opacity="0.93" /><text x="750.0" y="428" text-anchor="middle" font-size="13" font-family="Segoe UI, Arial, sans-serif" fill="#334155">Envoi d'une commande de mouvement</text><line x1="890" y1="480" x2="1170" y2="480" stroke="#111827" stroke-width="2.1" marker-end="url(#arrow-solid)" /><rect x="920.0" y="458" width="220" height="34" rx="6" fill="white" opacity="0.93" /><text x="1030.0" y="478" text-anchor="middle" font-size="13" font-family="Segoe UI, Arial, sans-serif" fill="#334155">publishServoCommand()</text><path d="M 1178 530 h 70 v 28 h -70" fill="none" stroke="#111827" stroke-width="2.1" marker-end="url(#arrow-solid)" /><text x="1256" y="540" text-anchor="start" font-size="13" font-family="Segoe UI, Arial, sans-serif" fill="#334155">Publication vers ROS 2</text><line x1="1170" y1="590" x2="610" y2="590" stroke="#64748b" stroke-width="2.1" marker-end="url(#arrow-dashed)" stroke-dasharray="7 6" /><rect x="780.0" y="568" width="220" height="34" rx="6" fill="white" opacity="0.93" /><text x="890.0" y="588" text-anchor="middle" font-size="13" font-family="Segoe UI, Arial, sans-serif" fill="#334155">Retour des états articulaires</text><line x1="610" y1="640" x2="1450" y2="640" stroke="#64748b" stroke-width="2.1" marker-end="url(#arrow-dashed)" stroke-dasharray="7 6" /><rect x="920.0" y="618" width="220" height="34" rx="6" fill="white" opacity="0.93" /><text x="1030.0" y="638" text-anchor="middle" font-size="13" font-family="Segoe UI, Arial, sans-serif" fill="#334155">updateJoint()</text><path d="M 1458 690 h 70 v 28 h -70" fill="none" stroke="#64748b" stroke-width="2.1" marker-end="url(#arrow-dashed)" stroke-dasharray="7 6" /><text x="1536" y="700" text-anchor="start" font-size="13" font-family="Segoe UI, Arial, sans-serif" fill="#334155">Quaternion</text><line x1="1450" y1="760" x2="80" y2="760" stroke="#64748b" stroke-width="2.1" marker-end="url(#arrow-dashed)" stroke-dasharray="7 6" /><rect x="655.0" y="738" width="220" height="34" rx="6" fill="white" opacity="0.93" /><text x="765.0" y="758" text-anchor="middle" font-size="13" font-family="Segoe UI, Arial, sans-serif" fill="#334155">Mise à jour du rendu 3D</text></svg>